<?xml version="1.0" standalone="no"?>
<!DOCTYPE svg PUBLIC "-//W3C//DTD SVG 20010904//EN"
 "http://www.w3.org/TR/2001/REC-SVG-20010904/DTD/svg10.dtd">
<svg version="1.0" xmlns="http://www.w3.org/2000/svg"
 width="512.000000pt" height="512.000000pt" viewBox="0 0 512.000000 512.000000"
 preserveAspectRatio="xMidYMid meet">
<metadata>
Created by potrace 1.11, written by Peter Selinger 2001-2013
</metadata>
<g transform="translate(0.000000,512.000000) scale(0.100000,-0.100000)"
fill="#000000" stroke="none">
<path d="M2474 4798 c-77 -79 -217 -239 -251 -287 -2 -3 -26 17 -54 45 l-50
49 -100 -103 c-55 -57 -134 -145 -176 -195 l-76 -91 24 -16 c41 -26 212 -156
252 -192 l39 -33 -43 -70 c-52 -85 -152 -294 -170 -352 -7 -24 -14 -43 -16
-43 -2 0 -47 22 -101 49 -104 52 -285 131 -300 131 -24 0 -157 -370 -207 -574
-31 -128 -65 -347 -65 -426 -1 -53 -1 -54 -15 -29 -27 49 -63 195 -76 300 -10
91 -9 178 4 369 2 24 -2 26 -86 39 -73 11 -90 12 -97 1 -4 -7 -15 -61 -24
-119 -76 -508 -32 -975 123 -1306 62 -132 126 -223 230 -325 115 -113 217
-177 363 -228 95 -33 114 -36 243 -40 119 -4 182 1 280 21 7 1 12 -181 15
-524 l5 -526 28 -36 c50 -65 57 -67 338 -67 235 0 254 1 288 21 20 11 48 36
61 56 l25 37 3 503 3 504 22 -7 c88 -28 139 -36 262 -41 159 -6 254 10 387 67
154 66 336 219 435 365 140 209 233 497 264 825 19 199 -4 696 -33 726 -4 3
-32 2 -63 -1 -52 -7 -56 -9 -51 -29 4 -11 9 -77 12 -146 7 -147 -10 -279 -53
-410 l-28 -85 -3 45 c-12 193 -61 436 -129 640 -47 141 -168 426 -185 436 -12
7 -236 -101 -352 -170 -44 -26 -82 -43 -86 -39 -4 4 -15 31 -25 58 -33 94 -87
210 -142 308 -53 94 -54 99 -39 122 9 14 75 78 146 142 72 65 130 121 130 125
0 8 -155 181 -219 243 l-51 49 -55 -54 -55 -54 -17 24 c-86 122 -353 420 -377
420 -7 0 -57 -46 -112 -102z m211 -1270 c354 -373 570 -744 641 -1104 26 -130
24 -351 -3 -464 -59 -236 -187 -428 -363 -545 -126 -84 -236 -118 -385 -119
-115 -1 -181 13 -283 60 -225 103 -377 289 -458 559 -36 120 -45 341 -20 485
48 275 217 612 457 910 99 123 286 320 304 320 7 0 57 -46 110 -102z"/>
</g>
</svg>
